<svg xmlns="http://www.w3.org/2000/svg" width="64" height="64" viewBox="0 0 64 64" fill="none">
    <g clip-path="url(#clip0_69_2494)">
        <mask id="mask0_69_2494" style="mask-type:alpha" maskUnits="userSpaceOnUse" x="0" y="0" width="64" height="64">
            <path d="M0 16.3719C0 10.5808 0 7.68526 1.14488 5.48128C2.10966 3.624 3.624 2.10966 5.48128 1.14488C7.68526 0 10.5808 0 16.3719 0H47.6281C53.419 0 56.3147 0 58.5188 1.14488C60.3758 2.10966 61.8905 3.624 62.8551 5.48128C64 7.68526 64 10.5808 64 16.3719V47.6281C64 53.419 64 56.3147 62.8551 58.5188C61.8905 60.3758 60.3758 61.8905 58.5188 62.8551C56.3147 64 53.419 64 47.6281 64H16.3719C10.5808 64 7.68526 64 5.48128 62.8551C3.624 61.8905 2.10966 60.3758 1.14488 58.5188C0 56.3147 0 53.419 0 47.6281V16.3719Z" fill="#C4C4C4"/>
        </mask>
        <g mask="url(#mask0_69_2494)">
            <path d="M64 0H0V64H64V0Z" fill="#F18D8D"/>
            <path d="M64 0H0V64H64V0Z" fill="#23212B"/>
            <mask id="mask1_69_2494" style="mask-type:luminance" maskUnits="userSpaceOnUse" x="12" y="12" width="40" height="40">
                <path d="M51.2499 12.75H12.75V51.2499H51.2499V12.75Z" fill="white"/>
            </mask>
            <g mask="url(#mask1_69_2494)">
                <path fill-rule="evenodd" clip-rule="evenodd" d="M50.7598 12.8346L36.4043 27.1639H38.7456C42.4153 27.1639 44.5749 29.4624 44.5749 31.988C44.5749 33.9646 43.2355 35.4214 41.8201 36.0572C41.5922 36.1589 41.6003 36.4704 41.8329 36.5621C43.4816 37.2114 44.6691 38.9383 44.6691 40.9561C44.6691 43.8229 42.7623 46.0935 39.0638 46.0935H28.8942C28.7344 46.0935 28.605 45.9662 28.605 45.8094V34.949L12.8493 50.6759C12.6375 50.8875 12.7869 51.2501 13.086 51.2501H50.992C51.1349 51.2501 51.2501 51.1342 51.2501 50.9913V13.0387C51.2501 12.7822 50.9411 12.6536 50.7598 12.8346ZM32.9967 42.5454H38.0238C39.5548 42.5454 40.4793 41.7508 40.4793 40.3886C40.4793 39.1975 39.6135 38.2315 38.0238 38.2315H32.9967C32.837 38.2315 32.7076 38.3588 32.7076 38.5156V42.2613C32.7076 42.4185 32.837 42.5454 32.9967 42.5454ZM32.7076 34.4004V30.9951C32.7076 30.8384 32.837 30.711 32.9967 30.711H37.8503C39.2373 30.711 40.1038 31.5337 40.1038 32.6976C40.1038 33.9176 39.2373 34.6842 37.8503 34.6842H32.9967C32.837 34.6842 32.7076 34.5571 32.7076 34.4004Z" fill="white"/>
            </g>
        </g>
    </g>
    <defs>
        <clipPath id="clip0_69_2494">
            <rect width="64" height="64" fill="white"/>
        </clipPath>
    </defs>
</svg>